Coordinates
version=1
nRows=8
nColumns=46
inDegrees=yes

Units are S.I. units (second, meters, Newtons, ...)
Angles are in degrees.

endheader
time	pelvis_tilt	pelvis_list	pelvis_rotation	pelvis_tx	pelvis_ty	pelvis_tz	bb_angle	bb_tx	bb_ty	bb_tz	hip_flexion_r	hip_adduction_r	hip_rotation_r	knee_angle_r	knee_angle_r_beta	ankle_angle_r	subtalar_angle_r	mtp_angle_r	crank_angle_r	hip_flexion_l	hip_adduction_l	hip_rotation_l	knee_angle_l	knee_angle_l_beta	ankle_angle_l	subtalar_angle_l	mtp_angle_l	crank_angle_l	lumbar_extension	lumbar_bending	lumbar_rotation	arm_flex_r	arm_add_r	arm_rot_r	elbow_flex_r	pro_sup_r	wrist_flex_r	wrist_dev_r	arm_flex_l	arm_add_l	arm_rot_l	elbow_flex_l	pro_sup_l	wrist_flex_l	wrist_dev_l
      0.00000000	    -26.64107966	     -3.05143690	      2.91887177	      0.14745814	      1.03506796	     -0.24026427	      0.00000000	      0.50000000	      0.00000000	      0.25000000	     62.71498234	     -4.50499384	     -1.36572330	     82.16725259	      1.43408910	     19.45929469	     -5.07320176	      0.00000000	      0.00000000	     84.78319318	     -5.62172469	      0.86878606	     64.20255505	      1.12054597	     -2.50223275	     -2.85776137	      0.00000000	      0.00000000	    -44.49959802	      2.35131268	     -1.72179708	     89.29715990	     -8.06247068	     34.95114661	     34.96574154	     31.22150248	      0.00000000	      0.00000000	     88.53460406	    -14.38971767	     35.39424046	     43.70626995	     32.92387346	      0.00000000	      0.00000000
      0.00500000	    -26.61925964	     -3.01486842	      2.96327902	      0.14744508	      1.03512282	     -0.24034891	      0.00000000	      0.50000000	      0.00000000	      0.25000000	     62.70030335	     -4.57963848	     -1.35554978	     82.19772725	      1.43462098	     19.53630077	     -4.95522961	      0.00000000	      0.00000000	     84.73232494	     -5.56012701	      0.84847071	     64.15966917	      1.11979747	     -2.52598225	     -2.81716685	      0.00000000	      0.00000000	    -44.53010132	      2.36202920	     -1.82693880	     89.30159618	     -7.84516505	     34.36150571	     34.61839995	     32.40737897	      0.00000000	      0.00000000	     88.49457559	    -14.37450169	     34.86386964	     43.59870722	     34.10306314	      0.00000000	      0.00000000
      0.01000000	    -26.62006365	     -3.05401555	      2.95251164	      0.14745462	      1.03509360	     -0.24032938	      0.00000000	      0.50000000	      0.00000000	      0.25000000	     62.69732498	     -4.54095708	     -1.38187995	     82.19662209	      1.43460169	     19.53908484	     -4.96459633	      0.00000000	      0.00000000	     84.74741211	     -5.58071687	      0.88418393	     64.17022323	      1.11998168	     -2.53273702	     -2.86269308	      0.00000000	      0.00000000	    -44.52999576	      2.38275837	     -1.75556472	     89.29614438	     -7.90321630	     34.22581860	     34.57486119	     33.26326013	      0.00000000	      0.00000000	     88.51720533	    -14.31940701	     34.90262609	     43.36083765	     34.94850018	      0.00000000	      0.00000000
      0.01500000	    -26.64877967	     -3.02832437	      2.93178879	      0.14744107	      1.03491959	     -0.24028037	      0.00000000	      0.50000000	      0.00000000	      0.25000000	     62.74831566	     -4.53969500	     -1.30348807	     82.25080809	      1.43554741	     19.60706342	     -4.86332081	      0.00000000	      0.00000000	     84.79744013	     -5.61021589	      0.86101649	     64.22223488	      1.12088945	     -2.48322909	     -2.76159869	      0.00000000	      0.00000000	    -44.43743841	      2.33643768	     -1.82653779	     89.29444633	     -7.76268720	     34.19856635	     34.17401481	     34.05512460	      0.00000000	      0.00000000	     88.52375986	    -14.24587598	     34.69704430	     43.00589217	     35.72491385	      0.00000000	      0.00000000
      0.02000000	    -26.66200604	     -3.06212962	      2.95365674	      0.14729692	      1.03502883	     -0.24053347	      0.00000000	      0.50000000	      0.00000000	      0.25000000	     62.77242892	     -4.57621540	     -1.33803246	     82.26836367	      1.43585382	     19.61440698	     -4.85603288	      0.00000000	      0.00000000	     84.82095875	     -5.55435968	      0.94932741	     64.21681642	      1.12079488	     -2.49912336	     -2.81288491	      0.00000000	      0.00000000	    -44.42751088	      2.38537767	     -1.73820338	     89.28634438	     -8.25857625	     34.97863085	     34.72115506	     33.44653090	      0.00000000	      0.00000000	     88.57474787	    -14.33102837	     35.36513935	     43.06895233	     35.44904775	      0.00000000	      0.00000000
      0.02500000	    -26.65498100	     -3.07448773	      2.98206014	      0.14728757	      1.03507255	     -0.24065295	      0.00000000	      0.50000000	      0.00000000	      0.25000000	     62.75950253	     -4.61046261	     -1.36828978	     82.27696395	      1.43600392	     19.65774221	     -4.82268859	      0.00000000	      0.00000000	     84.81026423	     -5.51245758	      0.97866682	     64.20181417	      1.12053304	     -2.51237976	     -2.84648382	      0.00000000	      0.00000000	    -44.44820899	      2.43187915	     -1.75758374	     89.29377762	     -8.27568443	     34.98795105	     34.75265491	     33.63379935	      0.00000000	      0.00000000	     88.54593036	    -14.32625810	     35.18477256	     43.11468021	     35.66135169	      0.00000000	      0.00000000
      0.03000000	    -26.66120748	     -3.05370682	      2.99689898	      0.14727556	      1.03506784	     -0.24072174	      0.00000000	      0.50000000	      0.00000000	      0.25000000	     62.77054777	     -4.64947390	     -1.35631072	     82.29404139	      1.43630198	     19.70302708	     -4.74628080	      0.00000000	      0.00000000	     84.80580539	     -5.48379104	      0.96840697	     64.18684807	      1.12027184	     -2.52276951	     -2.83598562	      0.00000000	      0.00000000	    -44.44368617	      2.42593987	     -1.82728993	     89.29163551	     -8.15523030	     34.80831973	     34.54340410	     34.22681277	      0.00000000	      0.00000000	     88.51953115	    -14.30526557	     34.79318110	     43.10047485	     36.22415856	      0.00000000	      0.00000000
      0.03500000	    -26.62077516	     -3.11043747	      3.01826074	      0.14731352	      1.03516506	     -0.24081810	      0.00000000	      0.50000000	      0.00000000	      0.25000000	     62.69962579	     -4.64246780	     -1.41644886	     82.26678672	      1.43582629	     19.72513005	     -4.74957328	      0.00000000	      0.00000000	     84.77496113	     -5.46616589	      1.03235582	     64.19208184	      1.12036318	     -2.52936595	     -2.86015222	      0.00000000	      0.00000000	    -44.53893651	      2.51660318	     -1.74351161	     89.30161903	     -8.15645345	     34.41573845	     34.70466511	     34.53651010	      0.00000000	      0.00000000	     88.46496578	    -14.25939095	     34.46468561	     43.23147799	     36.55261916	      0.00000000	      0.00000000
